<svg xmlns="http://www.w3.org/2000/svg" width="1277" height="353" viewBox="0 0 1277 353"><rect width="100%" height="100%" fill="#4d504c"/><path fill="#4d504c" d="M310.795 216.845h19.5v13.88h-60v-13.88h21.97v-63.22q0-3.75.22-7.73l-15.59 13.06q-1.35 1.05-2.67 1.31-1.31.26-2.47.04-1.16-.23-2.07-.79-.89-.56-1.34-1.24l-5.86-8.02 33.08-28.13h15.23v94.72Zm74.62-3.37h27.82q3 0 4.77 1.69 1.76 1.68 1.76 4.46v11.1h-74.4v-6.15q0-1.88.79-3.94.78-2.06 2.51-3.71l32.93-33q4.12-4.2 7.38-8.02 3.26-3.83 5.44-7.58 2.18-3.75 3.34-7.61 1.16-3.87 1.16-8.14 0-3.9-1.12-6.86-1.13-2.96-3.19-4.99-2.06-2.02-4.95-3.04-2.89-1.01-6.49-1.01-3.3 0-6.11.94-2.82.94-4.99 2.62-2.17 1.69-3.67 3.94t-2.25 4.95q-1.28 3.45-3.3 4.58-2.03 1.12-5.86.52l-9.75-1.72q1.13-7.8 4.36-13.69 3.22-5.89 8.06-9.83 4.83-3.93 11.1-5.92 6.26-1.99 13.46-1.99 7.5 0 13.73 2.21 6.22 2.22 10.65 6.27 4.42 4.04 6.89 9.75 2.48 5.7 2.48 12.67 0 6-1.76 11.1-1.77 5.1-4.73 9.75-2.96 4.65-6.93 9-3.98 4.35-8.33 8.85l-24.45 24.98q3.53-1.06 7.01-1.62 3.49-.56 6.64-.56Zm48.23-91.2h74.92v8.03q0 3.59-.75 5.81-.75 2.21-1.5 3.71l-41.1 84.6q-1.27 2.63-3.6 4.46-2.32 1.84-6.22 1.84h-13.43l41.93-82.88q1.42-2.54 2.81-4.68 1.39-2.14 3.11-4.09h-51.9q-1.72 0-3-1.27-1.27-1.28-1.27-3v-12.53Zm87 0h74.92v8.03q0 3.59-.75 5.81-.75 2.21-1.5 3.71l-41.1 84.6q-1.27 2.63-3.6 4.46-2.32 1.84-6.22 1.84h-13.43l41.93-82.88q1.42-2.54 2.81-4.68 1.39-2.14 3.11-4.09h-51.9q-1.72 0-3-1.27-1.27-1.28-1.27-3v-12.53Zm195.37 83.63-9.82 9.67-25.43-25.42-25.65 25.57-9.82-9.68 25.65-25.72-24.45-24.45 9.75-9.75 24.45 24.45 24.3-24.3 9.9 9.75-24.38 24.38 25.5 25.5Zm62.4-51.68-9.75-1.72q1.12-7.8 4.35-13.69 3.23-5.89 8.06-9.83 4.84-3.93 11.1-5.92 6.26-1.99 13.46-1.99 7.5 0 13.54 2.14 6.04 2.13 10.32 5.92 4.27 3.79 6.56 8.89 2.28 5.1 2.28 11.03 0 5.17-1.16 9.11-1.16 3.93-3.34 6.86-2.17 2.93-5.4 4.95-3.22 2.03-7.27 3.37 9.75 3.08 14.55 9.38 4.8 6.3 4.8 15.83 0 8.1-3 14.32-3 6.22-8.1 10.46-5.1 4.24-11.81 6.42-6.72 2.17-14.22 2.17-8.17 0-14.25-1.87-6.07-1.88-10.57-5.55-4.5-3.68-7.65-9-3.15-5.33-5.4-12.3l8.17-3.38q3.23-1.35 6.04-.71 2.81.64 4.09 3.04 1.35 2.62 2.96 5.17 1.61 2.55 3.86 4.54 2.25 1.98 5.29 3.22 3.04 1.24 7.24 1.24 4.72 0 8.25-1.54 3.52-1.53 5.89-4.01 2.36-2.48 3.52-5.51 1.17-3.04 1.17-6.11 0-3.91-.83-7.09-.83-3.19-3.45-5.44-2.63-2.25-7.54-3.53-4.91-1.27-13.16-1.27v-13.2q6.82-.07 11.32-1.28 4.5-1.2 7.17-3.33 2.66-2.14 3.71-5.14 1.05-3 1.05-6.6 0-7.65-4.27-11.63-4.28-3.97-11.41-3.97-3.3 0-6.07.94-2.77.94-4.99 2.62-2.21 1.69-3.71 3.94t-2.25 4.95q-1.28 3.45-3.34 4.58-2.06 1.12-5.81.52Zm103.42-15.15-3.82 22.57q3.6-.75 6.9-1.08 3.3-.34 6.37-.34 8.55 0 15.08 2.55 6.52 2.55 10.95 7.05t6.68 10.54q2.25 6.04 2.25 13.01 0 8.63-3.04 15.75-3.04 7.13-8.44 12.19-5.4 5.06-12.79 7.84-7.39 2.77-16.09 2.77-5.1 0-9.67-1.05-4.58-1.05-8.59-2.81t-7.42-4.05q-3.42-2.29-6.12-4.84l5.7-7.88q1.8-2.54 4.73-2.54 1.87 0 3.82 1.2 1.95 1.2 4.47 2.62 2.51 1.43 5.92 2.63t8.21 1.2q5.1 0 9-1.65 3.9-1.66 6.49-4.62 2.59-2.96 3.9-7.05 1.31-4.08 1.31-8.88 0-8.86-5.13-13.84-5.14-4.99-15.19-4.99-7.73 0-15.82 2.85l-11.56-3.3 9-52.65h53.56v7.87q0 3.98-2.48 6.45-2.48 2.48-8.4 2.48h-29.78Zm70.58 15.15-9.75-1.72q1.13-7.8 4.35-13.69 3.23-5.89 8.06-9.83 4.84-3.93 11.1-5.92 6.26-1.99 13.46-1.99 7.5 0 13.54 2.14 6.04 2.13 10.32 5.92 4.27 3.79 6.56 8.89 2.28 5.1 2.28 11.03 0 5.17-1.16 9.11-1.16 3.93-3.34 6.86-2.17 2.93-5.4 4.95-3.22 2.03-7.27 3.37 9.75 3.08 14.55 9.38 4.8 6.3 4.8 15.83 0 8.1-3 14.32-3 6.22-8.1 10.46-5.1 4.24-11.81 6.42-6.72 2.17-14.22 2.17-8.17 0-14.25-1.87-6.07-1.88-10.57-5.55-4.5-3.68-7.65-9-3.15-5.33-5.4-12.3l8.17-3.38q3.23-1.35 6.04-.71 2.82.64 4.09 3.04 1.35 2.62 2.96 5.17 1.61 2.55 3.86 4.54 2.25 1.98 5.29 3.22 3.04 1.24 7.24 1.24 4.72 0 8.25-1.54 3.52-1.53 5.89-4.01 2.36-2.48 3.52-5.51 1.17-3.04 1.17-6.11 0-3.91-.83-7.09-.83-3.19-3.45-5.44-2.63-2.25-7.54-3.53-4.91-1.27-13.16-1.27v-13.2q6.82-.07 11.32-1.28 4.5-1.2 7.17-3.33 2.66-2.14 3.71-5.14 1.05-3 1.05-6.6 0-7.65-4.27-11.63-4.28-3.97-11.41-3.97-3.29 0-6.07.94-2.77.94-4.99 2.62-2.21 1.69-3.71 3.94t-2.25 4.95q-1.27 3.45-3.34 4.58-2.06 1.12-5.81.52Z"/></svg>