<svg xmlns="http://www.w3.org/2000/svg" width="408" height="139" viewBox="0 0 408 139"><rect width="100%" height="100%" fill="#4d504c"/><path fill="#999999" d="M89.885 74.31h11.88V61.53q0-1.8.25-3.99l-12.13 16.77Zm17.69 0h4.91v3.86q0 .54-.35.93t-1 .39h-3.56v9.53h-5.81v-9.53h-16.47q-.67 0-1.19-.42-.51-.42-.64-1.04l-.71-3.37 18.5-24.71h6.32v24.36Zm36.26-4.81q0 5.1-1.1 8.87-1.09 3.77-3.02 6.22-1.93 2.46-4.56 3.66-2.64 1.2-5.69 1.2-3.05 0-5.65-1.2-2.61-1.2-4.53-3.66-1.91-2.45-2.99-6.22-1.08-3.77-1.08-8.87 0-5.13 1.08-8.88 1.08-3.76 2.99-6.21 1.92-2.46 4.53-3.66 2.6-1.2 5.65-1.2 3.05 0 5.69 1.2 2.63 1.2 4.56 3.66 1.93 2.45 3.02 6.21 1.1 3.75 1.1 8.88Zm-6.89 0q0-4.24-.62-7.02-.62-2.78-1.66-4.43t-2.39-2.31q-1.35-.66-2.81-.66-1.43 0-2.76.66-1.34.66-2.37 2.31-1.02 1.65-1.63 4.43-.61 2.78-.61 7.02t.61 7.02q.61 2.78 1.63 4.43 1.03 1.64 2.37 2.31 1.33.66 2.76.66 1.46 0 2.81-.66 1.35-.67 2.39-2.31 1.04-1.65 1.66-4.43.62-2.78.62-7.02Zm23.9 14.74q1.64 0 2.89-.47 1.24-.47 2.09-1.31.85-.84 1.28-2 .43-1.16.43-2.51 0-3.21-1.78-4.86-1.78-1.65-4.91-1.65t-4.92 1.65q-1.78 1.65-1.78 4.86 0 1.35.43 2.51.44 1.16 1.29 2 .85.84 2.09 1.31 1.24.47 2.89.47Zm0-29.67q-1.49 0-2.57.46-1.08.46-1.79 1.23-.72.76-1.06 1.76-.33 1-.33 2.11 0 1.16.28 2.25.28 1.1.96 1.95.67.85 1.78 1.36 1.11.51 2.73.51 1.62 0 2.73-.51 1.1-.51 1.78-1.36.67-.85.96-1.95.28-1.09.28-2.25 0-1.11-.35-2.11-.35-1-1.05-1.76-.71-.77-1.79-1.23-1.08-.46-2.56-.46Zm6.59 14.09q3.56 1.16 5.26 3.55 1.7 2.39 1.7 5.85 0 2.59-.98 4.7-.99 2.1-2.77 3.59-1.78 1.48-4.28 2.29t-5.52.81q-3.03 0-5.52-.81-2.5-.81-4.28-2.29-1.78-1.49-2.77-3.59-.99-2.11-.99-4.7 0-3.46 1.71-5.85 1.7-2.39 5.26-3.55-2.83-1.19-4.25-3.37-1.42-2.19-1.42-5.27 0-2.21.9-4.13.91-1.92 2.53-3.33 1.62-1.42 3.87-2.22 2.26-.79 4.96-.79t4.95.79q2.26.8 3.88 2.22 1.62 1.41 2.52 3.33.91 1.92.91 4.13 0 3.08-1.42 5.27-1.42 2.18-4.25 3.37Zm50.59 11.42-3.53 3.49-9.16-9.16-9.23 9.21-3.54-3.48 9.24-9.26-8.8-8.81 3.51-3.51 8.8 8.81 8.75-8.75 3.56 3.51-8.78 8.77 9.18 9.18Zm36.97 3.94h7.02v5h-21.6v-5h7.91V61.26q0-1.35.08-2.78l-5.62 4.7q-.48.38-.96.47-.47.1-.89.02-.41-.08-.74-.29-.32-.2-.48-.44l-2.11-2.89 11.91-10.13h5.48v34.1Zm16.82-22.54-3.51-.62q.4-2.81 1.56-4.93 1.17-2.12 2.91-3.54 1.74-1.41 3.99-2.13 2.26-.71 4.85-.71 2.7 0 4.87.77 2.18.76 3.72 2.13 1.53 1.36 2.36 3.2.82 1.83.82 3.97 0 1.86-.42 3.28-.42 1.42-1.2 2.47-.78 1.05-1.94 1.78t-2.62 1.21q3.51 1.11 5.24 3.38 1.72 2.27 1.72 5.7 0 2.91-1.08 5.15-1.08 2.25-2.91 3.77-1.84 1.53-4.25 2.31-2.42.78-5.12.78-2.94 0-5.13-.67-2.19-.68-3.81-2-1.62-1.32-2.75-3.24-1.14-1.92-1.95-4.43l2.95-1.21q1.16-.49 2.17-.26 1.01.23 1.47 1.09.49.95 1.07 1.87.58.91 1.39 1.63.81.71 1.9 1.16 1.1.45 2.61.45 1.7 0 2.97-.56 1.27-.55 2.12-1.44.85-.89 1.27-1.99.42-1.09.42-2.2 0-1.4-.3-2.55t-1.24-1.96q-.95-.81-2.72-1.26-1.77-.46-4.74-.46v-4.76q2.46-.02 4.08-.46 1.62-.43 2.58-1.2t1.34-1.85q.37-1.08.37-2.37 0-2.76-1.53-4.19-1.54-1.43-4.11-1.43-1.19 0-2.19.34-.99.34-1.79.94-.8.61-1.34 1.42-.54.81-.81 1.78-.46 1.25-1.2 1.65-.74.41-2.09.19Zm33.8.22q0 3.26 1.69 4.98 1.69 1.71 4.79 1.71 1.62 0 2.89-.51t2.13-1.4q.87-.9 1.31-2.11.45-1.22.45-2.62 0-1.59-.49-2.85-.48-1.25-1.37-2.12-.9-.86-2.12-1.32-1.23-.46-2.69-.46-1.51 0-2.73.5-1.21.5-2.08 1.39-.86.89-1.32 2.12-.46 1.23-.46 2.69Zm-3.27 27.32 12.13-15.15q.46-.56.86-1.1.41-.54.78-1.08-1.35.86-2.97 1.31-1.61.44-3.4.44-2.02 0-3.97-.7-1.94-.7-3.45-2.12-1.51-1.42-2.45-3.51-.93-2.09-.93-4.9 0-2.62.97-4.91.98-2.3 2.73-4.03 1.76-1.73 4.21-2.73 2.46-.99 5.43-.99 3 0 5.39.94 2.39.95 4.07 2.65 1.69 1.7 2.6 4.07.9 2.38.9 5.22 0 1.8-.31 3.42-.31 1.62-.88 3.12-.56 1.5-1.37 2.93-.81 1.43-1.81 2.84l-8.94 12.74q-.46.65-1.38 1.09-.92.45-2.08.45h-6.13Z"/></svg>